<mxfile host="Electron" modified="2023-10-02T09:29:57.460Z" agent="Mozilla/5.0 (Windows NT 10.0; Win64; x64) AppleWebKit/537.36 (KHTML, like Gecko) draw.io/21.7.5 Chrome/114.0.5735.289 Electron/25.8.1 Safari/537.36" etag="TUyd2uwVwYT2kcFJPi4S" version="21.7.5" type="device">
  <diagram name="Page-1" id="82e54ff1-d628-8f03-85c4-9753963a91cd">
    <mxGraphModel dx="3174" dy="2046" grid="1" gridSize="10" guides="1" tooltips="1" connect="1" arrows="1" fold="1" page="1" pageScale="1" pageWidth="1100" pageHeight="850" background="none" math="0" shadow="0">
      <root>
        <mxCell id="0" />
        <mxCell id="1" parent="0" />
        <mxCell id="MzmRAfiHSBgjfr6BDJmv-1" value="" style="rounded=0;whiteSpace=wrap;html=1;fillColor=#d5e8d4;strokeColor=#82b366;" vertex="1" parent="1">
          <mxGeometry x="-10" y="-80" width="1300" height="960" as="geometry" />
        </mxCell>
        <mxCell id="MzmRAfiHSBgjfr6BDJmv-2" value="" style="rounded=0;whiteSpace=wrap;html=1;fillColor=#ffe6cc;strokeColor=#d79b00;" vertex="1" parent="1">
          <mxGeometry x="20" y="60" width="550" height="380" as="geometry" />
        </mxCell>
        <mxCell id="MzmRAfiHSBgjfr6BDJmv-3" value="" style="rounded=0;whiteSpace=wrap;html=1;fillColor=#dae8fc;strokeColor=#6c8ebf;" vertex="1" parent="1">
          <mxGeometry x="30" y="120" width="530" height="70" as="geometry" />
        </mxCell>
        <mxCell id="MzmRAfiHSBgjfr6BDJmv-4" value="" style="rounded=0;whiteSpace=wrap;html=1;fillColor=#dae8fc;strokeColor=#6c8ebf;" vertex="1" parent="1">
          <mxGeometry x="30" y="210" width="530" height="70" as="geometry" />
        </mxCell>
        <mxCell id="MzmRAfiHSBgjfr6BDJmv-5" value="Github Action - Workflow" style="rounded=0;whiteSpace=wrap;html=1;" vertex="1" parent="1">
          <mxGeometry x="20" y="-70" width="150" height="30" as="geometry" />
        </mxCell>
        <mxCell id="MzmRAfiHSBgjfr6BDJmv-6" value="" style="rounded=0;whiteSpace=wrap;html=1;fillColor=#ffe6cc;strokeColor=#d79b00;" vertex="1" parent="1">
          <mxGeometry x="20" y="480" width="550" height="380" as="geometry" />
        </mxCell>
        <mxCell id="MzmRAfiHSBgjfr6BDJmv-7" value="" style="rounded=0;whiteSpace=wrap;html=1;fillColor=#dae8fc;strokeColor=#6c8ebf;" vertex="1" parent="1">
          <mxGeometry x="30" y="540" width="530" height="70" as="geometry" />
        </mxCell>
        <mxCell id="MzmRAfiHSBgjfr6BDJmv-8" value="" style="rounded=0;whiteSpace=wrap;html=1;fillColor=#dae8fc;strokeColor=#6c8ebf;" vertex="1" parent="1">
          <mxGeometry x="30" y="630" width="530" height="70" as="geometry" />
        </mxCell>
        <mxCell id="MzmRAfiHSBgjfr6BDJmv-9" value="" style="rounded=0;whiteSpace=wrap;html=1;fillColor=#ffe6cc;strokeColor=#d79b00;" vertex="1" parent="1">
          <mxGeometry x="660" y="60" width="550" height="380" as="geometry" />
        </mxCell>
        <mxCell id="MzmRAfiHSBgjfr6BDJmv-10" value="" style="rounded=0;whiteSpace=wrap;html=1;fillColor=#dae8fc;strokeColor=#6c8ebf;" vertex="1" parent="1">
          <mxGeometry x="670" y="120" width="530" height="70" as="geometry" />
        </mxCell>
        <mxCell id="MzmRAfiHSBgjfr6BDJmv-11" value="" style="rounded=0;whiteSpace=wrap;html=1;fillColor=#dae8fc;strokeColor=#6c8ebf;" vertex="1" parent="1">
          <mxGeometry x="670" y="210" width="530" height="70" as="geometry" />
        </mxCell>
        <mxCell id="MzmRAfiHSBgjfr6BDJmv-12" value="Jobs" style="rounded=0;whiteSpace=wrap;html=1;fillColor=#e1d5e7;strokeColor=#9673a6;" vertex="1" parent="1">
          <mxGeometry x="30" y="70" width="60" height="30" as="geometry" />
        </mxCell>
        <mxCell id="MzmRAfiHSBgjfr6BDJmv-13" value="Jobs" style="rounded=0;whiteSpace=wrap;html=1;fillColor=#e1d5e7;strokeColor=#9673a6;" vertex="1" parent="1">
          <mxGeometry x="30" y="490" width="60" height="30" as="geometry" />
        </mxCell>
        <mxCell id="MzmRAfiHSBgjfr6BDJmv-14" value="Jobs" style="rounded=0;whiteSpace=wrap;html=1;fillColor=#e1d5e7;strokeColor=#9673a6;" vertex="1" parent="1">
          <mxGeometry x="670" y="70" width="60" height="30" as="geometry" />
        </mxCell>
        <mxCell id="MzmRAfiHSBgjfr6BDJmv-15" value="&lt;div style=&quot;&quot;&gt;&lt;span style=&quot;background-color: initial;&quot;&gt;Triggers:&lt;/span&gt;&lt;br&gt;&lt;ol&gt;&lt;li style=&quot;&quot;&gt;&lt;span style=&quot;background-color: initial;&quot;&gt;push&amp;nbsp;&lt;/span&gt;&lt;/li&gt;&lt;li style=&quot;&quot;&gt;&lt;span style=&quot;background-color: initial;&quot;&gt;pull request&lt;/span&gt;&lt;/li&gt;&lt;li style=&quot;&quot;&gt;cron (time activated)&lt;/li&gt;&lt;li style=&quot;&quot;&gt;on request&lt;/li&gt;&lt;/ol&gt;&lt;/div&gt;" style="rounded=0;whiteSpace=wrap;html=1;align=left;" vertex="1" parent="1">
          <mxGeometry x="190" y="-70" width="160" height="120" as="geometry" />
        </mxCell>
        <mxCell id="MzmRAfiHSBgjfr6BDJmv-16" value="" style="shape=flexArrow;endArrow=classic;html=1;rounded=0;entryX=-0.001;entryY=0.519;entryDx=0;entryDy=0;entryPerimeter=0;exitX=1;exitY=0.519;exitDx=0;exitDy=0;exitPerimeter=0;endWidth=24;endSize=11.005714285714287;fillColor=#60a917;strokeColor=#2D7600;" edge="1" parent="1" source="MzmRAfiHSBgjfr6BDJmv-2" target="MzmRAfiHSBgjfr6BDJmv-9">
          <mxGeometry width="50" height="50" relative="1" as="geometry">
            <mxPoint x="580" y="280" as="sourcePoint" />
            <mxPoint x="630" y="230" as="targetPoint" />
          </mxGeometry>
        </mxCell>
        <mxCell id="MzmRAfiHSBgjfr6BDJmv-17" value="Steps" style="rounded=0;whiteSpace=wrap;html=1;fillColor=#e1d5e7;strokeColor=#9673a6;" vertex="1" parent="1">
          <mxGeometry x="40" y="130" width="60" height="30" as="geometry" />
        </mxCell>
        <mxCell id="MzmRAfiHSBgjfr6BDJmv-18" value="Steps" style="rounded=0;whiteSpace=wrap;html=1;fillColor=#e1d5e7;strokeColor=#9673a6;" vertex="1" parent="1">
          <mxGeometry x="40" y="220" width="60" height="30" as="geometry" />
        </mxCell>
        <mxCell id="MzmRAfiHSBgjfr6BDJmv-19" value="Steps" style="rounded=0;whiteSpace=wrap;html=1;fillColor=#e1d5e7;strokeColor=#9673a6;" vertex="1" parent="1">
          <mxGeometry x="40" y="550" width="60" height="30" as="geometry" />
        </mxCell>
        <mxCell id="MzmRAfiHSBgjfr6BDJmv-20" value="Steps" style="rounded=0;whiteSpace=wrap;html=1;fillColor=#e1d5e7;strokeColor=#9673a6;" vertex="1" parent="1">
          <mxGeometry x="40" y="640" width="60" height="30" as="geometry" />
        </mxCell>
        <mxCell id="MzmRAfiHSBgjfr6BDJmv-21" value="Steps" style="rounded=0;whiteSpace=wrap;html=1;fillColor=#e1d5e7;strokeColor=#9673a6;" vertex="1" parent="1">
          <mxGeometry x="680" y="130" width="60" height="30" as="geometry" />
        </mxCell>
        <mxCell id="MzmRAfiHSBgjfr6BDJmv-22" value="Steps" style="rounded=0;whiteSpace=wrap;html=1;fillColor=#e1d5e7;strokeColor=#9673a6;" vertex="1" parent="1">
          <mxGeometry x="680" y="220" width="60" height="30" as="geometry" />
        </mxCell>
      </root>
    </mxGraphModel>
  </diagram>
</mxfile>
